<svg xmlns="http://www.w3.org/2000/svg" viewBox="0 0 100 100" width="500" height="500" class="illustration"><defs><style>.cls-1{fill:#708d81;}.cls-2{fill:none;stroke:#3a00ba;stroke-miterlimit:10;stroke-width:2px;}.cls-3{fill:#3a00ba;}</style></defs><g id="Layer_2" data-name="Layer 2"><path class="cls-1" d="M69.79,72.5V76H19.9a4.55,4.55,0,0,1-4.55-4.54V69.15l.13-1.57s.84,4.92,12.15,4.92Z"></path><path class="cls-1" d="M73.39,17.36s6.18,1.56,7.78,3.89a8.22,8.22,0,0,1,1.22,5.11h3V21.53S84,17.28,80.84,17.28,73.39,17.36,73.39,17.36Z"></path><path class="cls-2" d="M85,22.22v3.56H15.37V22.25a4.92,4.92,0,0,1,4.93-4.93H80A4.93,4.93,0,0,1,85,22.22Z"></path><path class="cls-2" d="M85,60.17V28.74H15.36V71.33a4.4,4.4,0,0,0,4.39,4.39H69.87"></path><line class="cls-2" x1="18.8" y1="21.76" x2="22.67" y2="21.76"></line><line class="cls-2" x1="24.17" y1="21.76" x2="28.04" y2="21.76"></line><line class="cls-2" x1="29.53" y1="21.76" x2="33.4" y2="21.76"></line><path class="cls-3" d="M41.05,48.94H37.49v4.68H35.66V48.94h-10V47.62l9.43-11.8h2L28,47.31h7.73V43.19h1.78v4.12h3.56Z"></path><path class="cls-3" d="M46.15,52.68a7.17,7.17,0,0,1-2.52-3.14,12,12,0,0,1-.9-4.82,11.88,11.88,0,0,1,.9-4.82,7.11,7.11,0,0,1,2.52-3.14,6.69,6.69,0,0,1,7.35,0A7.2,7.2,0,0,1,56,39.9,11.71,11.71,0,0,1,57,44.72,11.77,11.77,0,0,1,56,49.54a7.25,7.25,0,0,1-2.53,3.14,6.74,6.74,0,0,1-7.35,0Zm6.41-1.45a5.6,5.6,0,0,0,1.84-2.52,10.74,10.74,0,0,0,.67-4,10.83,10.83,0,0,0-.67-4,5.52,5.52,0,0,0-1.84-2.51,4.73,4.73,0,0,0-5.47,0,5.52,5.52,0,0,0-1.84,2.51,10.84,10.84,0,0,0-.66,4,10.75,10.75,0,0,0,.66,4,5.6,5.6,0,0,0,1.84,2.52,4.78,4.78,0,0,0,5.47,0Z"></path><path class="cls-3" d="M74.7,48.94H71.14v4.68H69.31V48.94H59.26V47.62l9.44-11.8h2l-9.1,11.49h7.73V43.19h1.78v4.12H74.7Z"></path><rect class="cls-2" x="40.45" y="61.32" width="19.42" height="7.24"></rect><path class="cls-2" d="M90.18,80.34l-7.24,5.37a2.49,2.49,0,0,1-2.88,0l-7.24-5.37a7.58,7.58,0,0,1-2.73-5.69V60.35H92.91v14.3A7.58,7.58,0,0,1,90.18,80.34Z"></path><path class="cls-2" d="M78.76,68.47V67.13a2.44,2.44,0,0,1,2.44-2.44h.61a2.44,2.44,0,0,1,2.44,2.44v2"></path><rect class="cls-2" x="75.73" y="69.09" width="11.55" height="7.57"></rect></g></svg>