<svg xmlns="http://www.w3.org/2000/svg" viewBox="0 0 100 100" width="400" height="400" class="illustration"><defs><style>.cls-1{fill:#708d81;}.cls-2,.cls-3{fill:none;stroke:#3a00ba;stroke-width:2px;}.cls-2{stroke-miterlimit:10;}.cls-3{stroke-linejoin:bevel;}</style></defs><g id="Layer_2" data-name="Layer 2"><path class="cls-1" d="M78.62,28.25v3a6.54,6.54,0,0,1-.89.06A7.37,7.37,0,0,1,70.36,24a7.18,7.18,0,0,1,.26-1.92h.95A7.34,7.34,0,0,0,78.62,28.25Z"></path><path class="cls-1" d="M85,81.55A5.42,5.42,0,0,1,79.68,86H19.46a5.4,5.4,0,0,1-5.32-4.42Z"></path><polygon class="cls-1" points="20.52 47.51 55.38 60.59 49.29 64.1 20.52 47.51"></polygon><g id="Layer_2-2" data-name="Layer 2"><g id="Layer_2-2-2" data-name="Layer 2-2"><path class="cls-2" d="M85.1,47.66V80.55a4.71,4.71,0,0,1-.1,1A5.42,5.42,0,0,1,79.68,86H19.46a5.4,5.4,0,0,1-5.32-4.42,4.71,4.71,0,0,1-.1-1V47.66a5.25,5.25,0,0,1,1.1-3.25l5.38,3.1,5.35,3.09L49.29,64.1h0L61.67,57l4.12-2.37,12.83-7.41h0l5.2-3A5.4,5.4,0,0,1,85.1,47.66Z"></path><polyline class="cls-2" points="71.57 22.05 30.74 22.05 30.53 22.26 20.92 31.88 20.52 32.28 20.52 47.51 25.87 50.6 49.28 64.11 49.29 64.1 55.38 60.59 65.79 54.59 77.17 48.02 78.62 47.18 78.62 47.17 78.62 28.25"></polyline></g></g><polygon class="cls-3" points="30.53 22.26 30.53 31.88 20.92 31.88 30.53 22.26"></polygon><circle class="cls-2" cx="78.84" cy="20.89" r="7.37"></circle><path class="cls-2" d="M63,40.65a13.7,13.7,0,0,1-.37,4.93,3.88,3.88,0,0,1-3.75,2.86h-.09a4,4,0,0,0-4,4v.84a1.92,1.92,0,0,1-1.34,1.84,13.47,13.47,0,0,1-2.22.48,13.11,13.11,0,0,1-3.54,0,13.7,13.7,0,0,1-2.22-.48A1.91,1.91,0,0,1,44.1,53.3v-.84a4,4,0,0,0-4-4h0a4,4,0,0,1-3.9-3,13.89,13.89,0,0,1-.4-3.31A13.64,13.64,0,0,1,63,40.65Z"></path><circle class="cls-2" cx="43.56" cy="40.18" r="3.32"></circle><circle class="cls-2" cx="55.29" cy="40.18" r="3.32"></circle><line class="cls-2" x1="47.65" y1="55.62" x2="47.65" y2="48.44"></line><line class="cls-2" x1="51.19" y1="55.62" x2="51.19" y2="48.44"></line><path class="cls-2" d="M51.05,45.73c0,.9-.73.73-1.63.73s-1.62.17-1.62-.73.73-2.41,1.62-2.41S51.05,44.83,51.05,45.73Z"></path><line class="cls-2" x1="32.92" y1="74.7" x2="66.21" y2="74.7"></line><line class="cls-3" x1="15.13" y1="44.17" x2="20.52" y2="44.17"></line><line class="cls-3" x1="78.62" y1="44.17" x2="84" y2="44.17"></line></g></svg>